<?xml version="1.0" encoding="UTF-8"?>
<!-- Created with Inkscape (http://www.inkscape.org/) -->
<svg width="100" height="11.952" version="1.1" viewBox="0 0 26.458 3.1624" xmlns="http://www.w3.org/2000/svg">
    <g transform="matrix(.21961 0 0 .21961 -.026353 -181.7)" fill-rule="evenodd">
        <path d="m35.4 834.57-1.68 1.68c-0.48-0.24-1.2-0.96-1.92-1.68l1.68-1.68c0.48 0.24 1.2 0.96 1.92 1.68zm-15.6 0c-0.24 0.48-0.96 1.2-1.68 1.92l-1.68-1.68c0.24-0.48 0.96-1.2 1.68-1.92zm24-0.96 76.8 1.2-77.04 0.96c-0.72 0.24-1.44 0.96-1.92 1.68-0.96-0.72-2.16-1.68-3.12-2.64 0.96-0.96 1.68-1.92 2.4-2.88 0.96 0.48 1.92 1.44 2.88 1.68zm-15.12 0.96c-0.72 0.96-1.68 1.92-2.64 2.88-0.96-0.72-1.92-1.68-2.88-2.64 0.72-0.96 1.68-1.92 2.64-2.88 0.96 0.72 1.92 1.68 2.88 2.64zm-14.16 0-6.96 7.2-7.44-7.2 7.2-7.2z" fill="#cc941b" />
    </g>
</svg>