<?xml version="1.0" encoding="UTF-8"?>
<!-- Created with Inkscape (http://www.inkscape.org/) -->
<svg width="100" height="11.976" version="1.1" viewBox="0 0 26.458 3.1687" xmlns="http://www.w3.org/2000/svg">
   <g transform="matrix(.22005 0 0 .22005 .39608 -182.06)" fill-rule="evenodd">
      <path d="m102.36 834.57c-0.24 0.48-0.96 1.2-1.68 1.92l-1.92-1.92 1.68-1.68c0.48 0.24 1.2 0.96 1.92 1.68zm-15.6 0c-0.24 0.48-0.96 1.2-1.68 1.92l-1.68-1.68c0.24-0.48 0.96-1.2 1.68-1.92zm8.88 0c-0.72 0.96-1.68 1.92-2.64 2.88-0.96-0.72-1.92-1.68-2.88-2.64 0.72-0.96 1.68-1.92 2.64-2.88 0.96 0.72 1.92 1.68 2.88 2.64zm-15.36 0.24c-0.96 0.96-2.16 1.92-3.12 2.64-0.72-0.72-1.44-1.44-2.16-1.68l-76.8-1.2 76.8-0.96c0.72-0.24 1.68-0.96 2.4-1.68 0.96 0.72 1.92 1.92 2.88 2.88zm38.16-0.24-6.96 7.2-7.44-7.2 7.2-7.2z" fill="#cc941b"/>
   </g>
</svg>
