<?xml version="1.0" encoding="UTF-8"?>
<!-- Created with Inkscape (http://www.inkscape.org/) -->
<svg width="100" height="100" version="1.1" viewBox="0 0 26.458 26.458" xmlns="http://www.w3.org/2000/svg">
    <path d="m10.252 20.452 2.9512 3.9869 3.0029-3.9869h3.5726l2.2267 6.0066h-17.553l2.2262-6.0066zm6.8342-12.375c0 2.2785-1.7607 3.8838-3.8833 3.8838-1.2946 0-2.9512-0.72496-3.6243-2.4856-0.10357-0.25892-0.20714-0.72496-0.20714-0.82852v-1.087c0.41427-2.2785 2.1744-3.366 3.8315-3.366 2.2262 0 3.8833 1.8642 3.8833 3.8833zm1.6053 0c0 3.1588-2.641 5.4886-5.4886 5.4886-1.8125 0-4.2457-1.0357-5.1261-3.5726-0.10357-0.41427-0.3107-1.2428-0.3107-1.3464v-1.1387c0.41427-3.3142 3.1066-4.8672 5.4367-4.8672 3.1583 0 5.4886 2.4333 5.4886 5.4362zm2.5887 0c0 0.82852-0.15535 1.5535-0.46606 2.5374-0.51784 1.553-1.8642 3.3137-3.0029 4.8672-1.5535 2.0191-3.0547 4.194-4.5565 6.2649-0.20714-0.25892-0.51784-0.6214-0.77677-0.98389-2.278-3.3654-5.6441-6.9898-6.938-10.303-0.20714-0.51784-0.36249-1.5017-0.36249-1.6053v-1.6048c0.62141-4.8154 4.5047-7.2491 8.0254-7.2491 4.5047 0 8.0773 3.6249 8.0773 8.0773z" fill-rule="evenodd" stroke-width=".52917"/>
</svg>