<?xml version="1.0" encoding="UTF-8"?>
<!-- Created with Inkscape (http://www.inkscape.org/) -->
<svg width="100" height="100" version="1.1" viewBox="0 0 26.458 26.458" xmlns="http://www.w3.org/2000/svg">
   <path d="m22.265 17.243v5.0222h-5.0222v-5.0222zm0.56996-0.67357v6.2658h-6.2139v-6.2658zm-6.5246 0v6.2658h-6.2139v-6.2658zm-6.4732 0v6.2658h-6.2658v-6.2658zm12.998-6.5246v6.2658h-6.2139v-6.2658zm-6.5246 0v6.2658h-6.2139v-6.2658zm-6.4732 0v6.2658h-6.2658v-6.2658zm12.998-6.4732v6.2139h-6.2139v-6.2139zm-6.5246 0v6.2139h-6.2139v-6.2139zm-6.4732 0v6.2139h-6.2658v-6.2139zm-6.2658-3.2087v2.4353h19.315v-2.4353c0.10363-0.31088 0.10363-0.36269 0.35899-0.36269 0.15544 0 0.31088 0.10363 0.36269 0.20725v2.5907h2.4871c0.15544 0.051816 0.36269 0.15544 0.36269 0.36269 0 0.099927-0.10362 0.25537-0.25907 0.35899h-2.5907v19.315h2.5907c0.10363 0.10363 0.25907 0.20725 0.25907 0.36269 0 0.15544-0.25907 0.36269-0.36269 0.36269h-2.4871v2.587c-0.05182 0.10363-0.20725 0.20725-0.36269 0.20725-0.20355 0-0.35899-0.15544-0.35899-0.36269v-2.3279h-19.315v2.2761c-0.15544 0.25907-0.15544 0.41451-0.41451 0.41451-0.10363 0-0.25907-0.10363-0.31088-0.20725v-2.587h-2.5352c-0.15544-0.10363-0.31088-0.20725-0.31088-0.36269 0-0.15544 0.10363-0.25907 0.25907-0.36269h2.5352v-19.315h-2.5352c-0.10363-0.051816-0.25907-0.25907-0.25907-0.35899 0-0.20725 0.20725-0.36269 0.31088-0.36269h2.5352v-2.5907c0.051816-0.10363 0.20725-0.20725 0.31088-0.20725 0.20725 0 0.41451 0.15544 0.41451 0.36269z" fill-rule="evenodd" stroke-width=".3701" />
</svg>