<svg xmlns="http://www.w3.org/2000/svg" viewBox="0 0 26.5 26.5">
  <path fill-rule="evenodd" d="M22.3 17.2v5h-5v-5zm.5-.6v6.2h-6.2v-6.2zm-6.5 0v6.2h-6.2v-6.2zm-6.5 0v6.2H3.6v-6.2zm13-6.6v6.3h-6.2V10zm-6.5 0v6.3h-6.2V10zm-6.5 0v6.3H3.6V10zm13-6.4v6.2h-6.2V3.6zm-6.5 0v6.2h-6.2V3.6zm-6.5 0v6.2H3.6V3.6zM3.6.4v2.4h19.3V.4c0-.3 0-.4.3-.4l.4.2v2.6h2.5c.2 0 .4.2.4.4l-.3.3h-2.6v19.3h2.6c.1.1.3.2.3.4s-.3.4-.4.4h-2.5V26c0 .2-.2.3-.4.3a.4.4 0 0 1-.3-.4v-2.3H3.6v2.2c-.2.3-.2.5-.4.5l-.4-.3v-2.5H.3c-.1-.1-.3-.2-.3-.4s.1-.3.3-.4h2.5V3.5H.3L0 3.2c0-.2.2-.4.3-.4h2.5V.2l.4-.2c.2 0 .4.2.4.4z"/>
</svg>
