<?xml version="1.0" encoding="UTF-8"?>
<!-- Created with Inkscape (http://www.inkscape.org/) -->
<svg width="100" height="100" version="1.1" viewBox="0 0 26.458 26.458" xmlns="http://www.w3.org/2000/svg">
    <path d="m24.23 18.858c-0.9716 1.9424-3.4291 4.4-5.3721 5.3716-0.28576-0.45722-0.28576-0.9716-0.40007-1.486-0.05715-0.40007-0.285-1.0288-0.285-1.2002 0-0.1143 0.22785-0.22861 0.34215-0.34291 0.9716-0.74295 1.886-1.2566 2.9148-1.6567 0.74295-0.34291 1.6003-0.51437 2.4004-0.6858zm-21.715 0c2.9148 0.34291 7.2004 2.8569 8.9149 6.5717h-0.17146c-2.9719-0.34291-7.3147-2.9719-9.0292-6.5717zm22.686-2.629c-0.17146 0.51436-0.34291 1.0859-0.5715 1.5431-2.2282 0.28576-4.5714 1.0859-6.7998 2.7997-0.40007-0.68506-1.3145-2.171-1.3145-2.2853 0-0.17146 0.34291-0.28576 0.5715-0.45722 1.4852-0.8573 2.9712-1.3717 4.4571-1.6003 0.5715-0.11431 1.7717-0.11431 1.886-0.11431 0.17146 0 1.1994 0.05715 1.771 0.11431zm-10.229 9.2006c-0.22861 0.05715-0.5715 0.11431-0.74295 0.11431h-1.7146c-0.34291-0.74295-0.91366-1.7717-1.4852-2.4576-2.5147-3.3141-5.7716-4.7429-8.6291-5.2001-0.17146-0.05715-0.40007 0-0.62865-0.1143-0.17146-0.45722-0.40007-1.0288-0.51437-1.5431 0.5715-0.05715 1.6003-0.11431 1.7717-0.11431 4.7429 0 10.057 2.8005 11.943 9.3149zm9.7716-11.315c0.34291 0.17146 0.74295 0.1143 0.74295 0.51361 0 0.1143-0.05715 0.40007-0.1143 0.62865l0.05715 0.05715c-0.80015-0.05715-1.8853-0.1143-1.9996-0.1143-0.80015 0-1.6003 0-2.4004 0.17146-1.0288 0.22861-2.1146 0.51437-3.0855 0.9716-0.6858 0.28576-1.886 1.1431-2.0003 1.1431-0.17146 0-1.2574-1.3145-1.9432-1.886 2.2861-1.5995 4.5714-2.0567 6.8575-2.0567 1.2002 0 2.5719 0.05715 3.8856 0.5715zm-7.7142 7.1427c0.22861 0.62865 0.8573 2.4576 0.8573 3.2577 0 0.34291-1.4288 0.5715-1.8289 0.74295h-0.17146c-2.1146-7.3147-7.8862-10.058-12.915-10.058-0.11431 0-1.2002 0.05715-2.0003 0.11431 0 0 0.11431-0.05715 0.05715-0.11431 0-0.17146-0.05715-0.45722-0.05715-0.5715v-0.22861c0.91445-0.45645 1.9432-0.62791 2.9148-0.79936 0.51437-0.11431 1.6003-0.11431 1.7146-0.11431 3.9999 0 9.2572 2.171 11.429 7.7713zm-8.0576-14.857c0.28576 0.05715 0.5715 0.11431 0.80015 0.11431 1.7146 0.17146 2.9712 2.3425 2.9712 3.657v0.34291h-0.51437c-0.11354-0.05715-0.285-0.11431-0.3993-0.11431-1.486-0.1143-3.0291-1.7146-3.0862-2.7997 0-0.22861-0.11431-0.5715-0.11431-0.6858v-0.51437zm8.8577-1.8289v0.45722c-0.05715 1.6574-1.6574 3.4284-2.9719 3.4855-0.17146 0-0.51437 0.17146-0.6858 0.17146h-0.45722v-0.40007c0.1143-0.85651 0.34291-1.9996 1.3145-2.7997 0.51437-0.45722 1.1431-0.6858 1.7146-0.80015 0.17146 0 0.45722-0.05715 0.6858-0.11431zm6.9712 4.4571c0.05715 0.11431 0.74295 2.3433 0.74295 3.1434v1.2574c-1.4852-0.51437-3.2569-0.8573-4.6857-0.8573-2.2289 0-4.9715 0.62865-7.1432 2.1139v-5.0286c3.6006-0.17146 5.0858-2.6854 5.0858-5.3144 0-0.5715-0.22861-0.74295-0.68506-0.74295-2.1146 0-4.7436 1.0288-5.2008 4.0578-0.97081-1.6574-3.3141-2.2289-4.6286-2.2289-0.6858 0-0.62865 0.45722-0.62865 0.80015 0 2.5139 1.4288 5.0858 5.0858 5.2572v3.1998c-2.2853-1.4852-4.8-2.1139-7.1427-2.1139-1.5431 0-3.2005 0.34291-4.6865 0.8573v-1.2574c0.9716-7.6004 6.686-11.257 12.286-11.257 4.3436 0 9.3149 2.2282 11.6 8.1142zm1.6574 4.1721c0 7.4284-6.1145 13.258-13.258 13.258-7.4284 0-13.201-6.1145-13.201-13.258 0-7.2575 5.9436-13.201 13.201-13.201 7.429 0 13.258 6.0574 13.258 13.201z" fill-rule="evenodd" stroke-width=".0762" />
</svg>