<?xml version="1.0" encoding="UTF-8"?>
<!-- Created with Inkscape (http://www.inkscape.org/) -->
<svg width="100" height="100" version="1.1" viewBox="0 0 26.458 26.458" xmlns="http://www.w3.org/2000/svg">
    <path d="m25.586 11.259-11.541 15.087 5.6298-15.087zm-6.7554 0-5.5732 14.974-5.2917-14.974zm-11.653 0 5.2917 15.199-11.597-15.199zm18.409-0.78804h-5.6298l2.139-5.7431zm-18.69 0h-6.0235l3.9964-5.7992zm14.524-6.1368-2.139 5.7986-4.8415-5.7986zm-7.9936 0c1.6886 2.0271 3.4336 4.1098 5.123 6.1368h-10.302c1.5761-2.0271 3.2084-4.1098 4.7852-6.1368h0.16886zm-1.3509 0-4.5038 5.7986-2.0271-5.7986zm6.305-3.8839c0 0.28144-1.0132 1.1258-1.0694 1.1258-0.22515 0-0.28144-0.22515-0.28144-0.33773 0-0.28144 0.9569-1.0694 1.0694-1.0694 0.22515 0 0.28144 0.16886 0.28144 0.28144zm-8.9514 0.78804c0 0.22515-0.22515 0.33773-0.28144 0.33773-0.16886 0-1.1258-1.0132-1.1258-1.1258 0-0.22515 0.16886-0.28144 0.33773-0.28144 0.22515 0 1.0694 0.9569 1.0694 1.0694zm4.1098-0.39402c0 0.28144 0.05629 0.90059-0.33772 0.90059-0.16886 0-0.28144-0.22515-0.28144-0.28144v-1.2384c0.056288-0.11258 0.16886-0.22515 0.28144-0.22515 0.39402 0 0.33772 0.73173 0.33772 0.84434z" fill-rule="evenodd" stroke-width=".075052"/>
</svg>