<?xml version="1.0" encoding="UTF-8"?>
<!-- Created with Inkscape (http://www.inkscape.org/) -->
<svg width="500" height="200.3" version="1.1" viewBox="0 0 500 200.3" xml:space="preserve" xmlns="http://www.w3.org/2000/svg">
  <g transform="matrix(1.3333 0 0 -1.3333 -.1599 151.57)">
    <g transform="scale(.1)" fill-rule="evenodd">
      <path d="m1511.4 308.09h-300.77l156.78 383.96zm1398.3 649.53-559.94-831.91h559.94v-195.18h-966.3l563.14 838.31h-518.34v188.78zm-1385.5 0 399.96-1027.1h-271.97l-73.592 201.58h-441.55l-86.387-201.58h-268.77l447.95 1027.1zm-1254.3 0 281.57-588.74 243.18 588.74h271.97l-447.96-1027.1h-105.59l-511.94 1027.1h268.77" fill="#af4238"/>
      <g fill="#284f73">
        <path d="m3751.2 842.43-38.396-118.39h-287.97c-12.799-19.195-25.597-41.594-38.396-60.79 0 0 0-3.1983 3.1997-3.1983 38.396-9.603 79.991-16.004 118.39-32.002 105.59-41.594 150.38-131.18 150.38-207.97 0-134.39-118.39-268.77-278.37-294.37h-9.599c67.193 9.599 153.58 108.79 156.78 169.58v60.79c-6.3994 92.793-131.19 195.18-217.58 191.98h-35.196l166.38 294.37zm-380.76 140.78c0-182.38-278.37-332.76-415.96-451.15h313.57l-57.594-121.59h-438.35v19.201c140.78 127.99 441.55 326.36 441.55 499.15 0 79.99-76.792 108.79-127.99 108.79-44.795 0-118.39-25.597-159.98-67.193 44.795 127.99 153.58 166.38 239.97 166.38 73.592 0 204.78-41.596 204.78-153.58" />
        <path d="m2810.5 256.9h-15.998c0 6.4006 6.3993 15.998 6.3993 22.399 3.1997-3.2037 6.3993-12.801 9.599-22.399zm342.36 9.5976c0-19.195-12.799-25.596-22.398-25.596-19.198 0-19.198 19.201-19.198 22.399 0 12.795 3.1997 22.398 19.198 22.398 19.198 0 22.398-9.603 22.398-19.201zm172.78 12.801h-12.799c-6.3993 6.3993-9.599 9.5976-19.198 9.5976-6.3993 0-9.5989-3.1983-15.998-6.4006 0-19.195 51.195-9.5976 51.195-31.997 0-15.998-25.597-22.399-31.997-22.399-3.1997 0-25.597 6.4006-31.997 19.202h12.799c3.1997-6.4006 9.599-9.599 19.198-9.599 6.3993 0 12.799 3.1983 19.198 9.599-12.799 22.398-51.194 3.197-51.194 31.997 0 15.998 15.998 19.195 28.797 19.195 9.599 0 28.797-3.197 31.997-19.195zm-156.78-15.998c0-22.399-15.998-35.2-38.396-35.2s-35.196 15.998-35.196 35.2c0 22.398 12.799 35.194 35.196 35.194 28.797 0 38.396-15.998 38.396-35.194zm-220.78 35.194c12.799-15.998 22.398-35.194 35.196-51.192 3.1997 15.998 3.1997 35.194 0 51.192h15.998v-70.394h-15.998c-9.599 15.998-22.398 35.2-35.196 51.199-3.1997-15.998-3.1997-35.2-3.1997-51.199h-9.5989v70.394zm-137.59 0c9.599-22.399 19.198-47.995 28.797-70.394h-12.799c-3.1997 19.202-19.198 15.998-25.597 15.998-15.998 0-15.998 3.2037-22.398-15.998h-12.799c9.599 22.399 19.198 47.995 25.597 70.394h19.198" />
        <path d="m592.44-170.79c0.54127-2.9317 0.83324-6.1767 0.83324-9.7336 0-1.7292-0.9319-9.5976-2.6664-14.93-3.5983-13.067-23.732-25.331-34.262-25.331h-27.201c-0.9319 0.80258-2.6664 0.80258-1.7292 27.997l-0.78125 21.998h-15.086v-63.993h45.594c29.867 0 52.797 26.263 52.797 54.26 0 3.0943-0.34397 6.354-1.0159 9.671zm52.26 0c0.19732-2.0264 0.71859-2.2184 1.2345-2.6664h45.594c0.9319-11.463 0-12.264 0-13.196h-45.594l-2.6664-2.6664c4.4009-30.663 1.7345-31.466 2.6664-32.398h48.26v-13.067h-64.124v63.993zm98.959 0c12.712-8.1765 26.929-17.993 26.929-36.928 0-20.134-15.864-28.8-31.595-28.8-8.8017 0-26.399 1.7345-29.065 13.067l0.9319 14.93c8.8017-8.7951 16.665-14.93 26.399-14.93 9.5976 0 18.399 7.0672 18.399 15.733 0 16.957-25.295 22.774-38.263 36.876zm59.456 0v-0.13598l2.5371-2.5304h46.526v-13.196h-46.526l-2.5371-2.6664v-29.731l2.5371-2.6664h49.192c0.9319-11.332 0-12.264 0-13.067h-64.925v63.993zm87.725 0v-63.993h-14.93v63.993zm36.231 0c10.628-12.499 21.367-25.2 32.298-37.731l1.7292 1.7345v35.996h13.203v-63.993h-11.468l-54.458 63.993zm93.391 0c4.4995-10.592 8.9564-21.274 13.565-31.595 1.7292 0 2.5318 1.7345 3.4637 3.4676 4.1142 9.2697 8.3737 18.659 12.66 28.07l14.545 0.0573-29.872-64.925c-0.7973 0-1.7345 0.93191-2.5304 1.7345-8.6138 20.878-17.817 42.005-27.284 63.259zm163.96 0c0.9479-3.1823 1.4585-6.4686 1.4585-9.7336 0-2.6664-1.7345-8.7951-2.6664-12.264-4.4008-18.399-25.467-29.731-39.465-29.731-22.794 0-41.329 19.202-41.329 41.2 0 3.645 0.4426 7.1659 1.2759 10.519l-16.785 0.0107c-0.072-0.33863-0.1453-0.63593-0.2186-0.9319v-17.597c0-10.4 16.665-38.533 29.862-40.268 0.8013-0.79591 1.7345-1.7278 2.6664-1.7278 14.8-4.4009 14.8-5.2034 25.465-5.2034 31.597 0 57.062 23.596 57.062 56.926 0 2.9957-0.244 5.9274-0.7133 8.7711zm49.719 0v-48.26l2.6664-2.6664h49.995v-13.067h-65.728v63.993zm77.309 0c1.9118-5.0621 3.9169-10.056 6.1513-14.93 1.7332-4.4009 5.1968-9.7336 6.1287-14.93 0.9372 0 1.7345-0.93324 2.6664-1.7345 0.8026 0.80125 2.6664 2.6664 2.6664 3.4676 4.1208 9.2697 8.3471 18.659 12.613 28.07l14.598 0.0573-29.878-64.925c-0.9319 0-1.7292 0.93191-2.6664 1.7345-8.5298 20.878-17.753 42.005-27.216 63.259zm88.673 0v-63.993h-13.199v63.993zm40.396 0v-63.993h-13.998v63.993zm38.369 0c0.093 0 0.1999-0.068 0.2933-0.13598l0.12 0.13598h18.771c-6.3193-7.5152-13.105-15.914-18.091-21.998-7.3059 6.8593-14.105 14.55-20.358 21.976zm52.021 0v-63.993h-13.065v63.993zm40.142 0c0.2-2.0264 0.6666-2.2184 1.1866-2.6664h45.595v-13.196h-45.595l-2.6664-2.6664c4.3995-30.663 1.7332-31.466 2.6664-32.398h49.195v-13.067h-65.06v63.993zm85.444 0v-63.993c-0.7999 0-1.7331-0.93191-13.998 0v63.993zm35.956 0c10.066-11.696 21.184-24.893 31.637-36.928h2.6664l1.2265 36.928h13.705v-63.993h-12.265l-53.928 63.993zm117.76 0v-63.993c-3.5996 0-7.9991 0-12.265-0.93191 0 0-1.8665-0.80258-1.8665 1.7345v63.191zm146.38 0c0.6933-2.8024 1.0665-5.7647 1.0665-8.8017 0-21.992-19.331-42.927-41.196-42.927-23.731 0-42.129 19.202-42.129 41.996 0 3.3436 0.4 6.5886 1.1466 9.6923l-16.238 0.0413c-0.5066-3.093-0.7733-6.3486-0.7733-9.7336 0-32.398 24.531-55.994 57.994-55.994 31.597 0 57.061 23.596 57.061 55.994 0 3.3543-0.28 6.6033-0.7999 9.739zm90.657 0v-63.993c-0.9333 0-1.7332-0.93191-13.998 0v63.993zm38.662 0v-63.993h-13.199v63.993zm38.542 0 0.12-0.13598c0.16 0.0573 0.3067 0.11998 0.4666 0.18264l17.518-0.0467c-7.3859-8.7444-14.612-18.211-17.185-21.998-6.8526 6.4113-13.172 14.154-19.878 22.019zm51.848 0v-63.993h-13.199v63.993zm117.24 0c0.8399-3.1823 1.2799-6.4686 1.2799-9.7336 0-22.794-21.064-41.996-42.129-41.996-23.731 0-41.196 20.935-41.196 41.996 0 3.3436 0.3999 6.5886 1.1465 9.6923l-16.078 0.0413v-21.998c0-1.7345 3.4663-9.5976 5.1995-13.999 9.7323-19.331 33.33-29.731 50.928-29.731 28.13 0 57.994 20.134 57.994 55.994 0 3.3543-0.2667 6.6033-0.7999 9.739zm74.925 0c-1.8665-1.1825-3.9063-1.8638-6.0527-1.8638h-18.398c0.3067 0.30664 0.6 0.59861 0.7866 1.9318l-15.718-0.068v-63.993h44.795c2.6664 0 7.8658 1.7345 11.465 3.469 2.5331 1.7278 11.332 6.1287 13.065 10.53 3.5996 8.8017 4.3995 10.535 4.3995 14.93 0 7.8698-0.7999 14.801-9.5989 21.868-4.3996 3.4623-9.7323 3.4623-12.265 7.8632 2.8264 1.5985 5.0795 3.3903 6.866 5.2914zm67.806 0v-63.993h-14.132v63.993zm41.196 0v-50.927h50.128c0.7999-10.531 0-12.264 0-13.067h-65.06v63.993zm79.858 0v-63.993c-2.5331-0.93191-5.1995-0.93191-7.8659-0.93191-1.7331 0-5.1994 0-7.0659 1.7345v63.191zm71.126 0c1.9331-4.4155 3.9729-8.8057 6.1993-13.196v-3.469h-29.863s-0.9333-0.9319-0.9333 0.80258c0 1.4678 2.973 8.2591 6.4927 15.95l-15.825-0.088c-13.359-30.418-26.664-60.51-26.664-62.259 0-1.7345 0.9332-1.7345 0.9332-1.7345h13.199c17.598 38.527 9.599 32.398 36.796 32.398 29.863 0 19.331 6.1287 39.596-32.398h13.199c-9.4256 21.331-18.545 42.703-27.877 64.072zm94.11 0c-5.586-2.6664-12.572-2.6664-16.852-2.6664-4.2662 0-7.8658 0-9.599 2.5304v0.13598h-13.998v-63.993h13.065v44.662c0 3.469 2.6664 4.4009 6.266 4.4009 21.064 0 28.93-29.862 45.595-49.063h16.665c-10.532 16.665-21.064 35.865-35.063 49.864v2.6664c6.4793 1.3185 11.052 6.0727 14.012 11.38zm64.513 0-0.5732-63.993h-13.998v63.993zm116.05 0c0.7199-2.921 1.0932-5.8487 1.0932-8.8017 0-25.46-19.331-42.125-41.329-42.125-1.7332 0-7.8658 2.6664-12.265 2.6664-8.799 0-27.197 20.133-27.197 29.731v16.665c0.16 0.59861 0.3333 1.1919 0.5067 1.7758l-18.185 0.088c-0.4666-3.1663-0.7199-6.3846-0.7199-9.7336 0-33.33 26.264-56.926 58.794-56.926 30.663 0 57.061 21.867 57.061 56.926 0 3.3796-0.24 6.6513-0.7199 9.7963zm-516.98-33.33c0-2.6664 0-4.4009-0.8-6.13-0.9332-2.6717-10.532-10.535-12.399-10.535h-28.93c0.9333 0.80258 1.7332 1.7345 0 30.663 1.7332 3.469 9.599 2.6664 13.199 2.6664 12.265 0 28.93 1.7345 28.93-16.665" />
        <path d="m2625.9-104.13-8.8124-10.666h-6.1327c1.5732 3.4423 3.453 7.0619 5.5194 10.702zm-2114.3-66.66v43.73h47.464c27.997 0.80658 45.64-22.686 49.911-43.793l-16.482 0.0627c-4.8382 26.331-29.877 30.533-52.76 30.533h-14.134l1.0879-30.533zm118.52 0v44.662h61.457c0.9319-0.9319 1.7345-0.9319 1.7345-3.5983v-9.5976h-48.26c-0.93323-0.93323 0-1.7345 0-21.868-0.41729-5.1034-0.46395-7.9365-0.30264-9.5763zm87.324 0c-4.4622 4.8062-7.4672 10.644-7.4672 18.263 0 20.268 17.597 28.133 31.731 28.133 6.1287 0 17.461-2.6664 24.528-7.8645v-14.936c-1.7345 0-4.3955 3.469-7.0672 4.4009-6.9313 3.469-13.196 5.1968-18.394 5.1968-6.134 0-16.665-2.661-16.665-13.06 0-8.2284 9.307-13.661 19.598-20.213zm72.524 0v44.662h61.461c0.79725-1.8638 2.6664-5.3328 2.6664-7.0672 0-2.6664 0-3.4623-0.93723-6.1287h-49.995c0.80258-1.7292 5e-3 -3.4583 0-31.387zm85.991 0v41.996c2.6664 1.7345 5.3328 1.7345 7.0672 1.7345 2.6664 0 5.1968 0.9319 7.0659-0.9319 12.291-13.665 24.587-28.097 37.028-42.767l-18.697-0.0307-14.868 17.467c-0.9319 0-1.7292-0.93857-2.6664-1.7345v-15.733zm85.188 0v43.73h13.203v-43.73zm43.913 0c-6.0726 13.692-12.249 27.366-18.446 41.064l0.9319 3.5983c5.2021-1.8638 11.332 3.469 14.93-4.4009 6.374-12.821 12.244-26.492 18.035-40.193zm45.14 0c6.6873 14.624 13.452 29.352 19.873 43.73h13.197s0.8013-0.9319 0.8013-1.7345l-19.326-41.996zm36.756 0c8.9577 35.106 31.597 45.464 57.775 45.464 28.508 0 52.026-19.217 56.349-45.495l-16.613 0.0307c-4.9008 16.676-21.571 31.466-40.673 31.466-19.274 0-35.496-13.151-40.053-31.477zm134.16 0v44.662c3.469-0.9319 7.8698-0.9319 11.332 0 1.7345-4.4009 1.7345-3.5983 1.7345-5.3328v-39.329zm75.44 0c-6.0673 13.692-12.233 27.366-18.378 41.064l0.8026 3.5983c4.3995-0.9319 11.461 2.5357 14.128-1.8638 7.8592-13.031 12.749-28.065 18.383-42.834zm45.162 0c6.6526 14.624 13.372 29.352 19.784 43.73h13.199c0.9332-0.9319 0.9332-1.7345 0.9332-1.7345l-19.318-41.996zm45.248 0v43.73h13.199v-43.73zm39.596 0v41.996c1.7332 2.6664 5.1995 1.7345 6.9326 1.7345 2.6664 0 4.3996 0.9319 6.1327 0 5.3328-4.4009 9.7323-11.332 14.132-16.665 8.7191-8.7177 14.812-19.921 25.171-26.997l-19.265-0.068c-4.9462 5.838-9.5324 11.535-13.772 16.529-0.9332 0.93857-2.6664 0.93857-5.3328 1.7345v-18.263zm52.781 0 40.276 44.662c3.4662-0.9319 6.9325-0.9319 11.332 0v-44.662h-13.065v17.467c-0.9332 0-0.9332 0.79591-2.6664 0.79591-1.5065 0-8.8924-8.3951-17.105-18.222zm77.072 0v43.73h61.46c1.8665-3.469 1.8665-7.0672 2.6664-10.536-0.7999-0.79592-0.7999-1.7278-3.4663-1.7278h-45.728c-0.8-0.93323 0-1.7345 0-21.868-0.36-5.1034-0.3867-7.9365-0.2534-9.5763zm86.124 0v41.996c0.8 0.80258 0.8 1.7345 1.7332 2.6664 3.4663-0.9319 8.799 1.7345 11.465-0.9319 11.332-10.536 21.864-25.467 31.597-37.731 1.6798-1.9371 3.3996-3.9316 5.1594-5.9727l-16.958-0.0267-15.398 18.263c-0.9333 0-2.6664-0.79591-3.5997-1.7345v-16.529zm85.484 0 1.4399 43.73h12.265v-43.73zm68.099 0v28.8l-2.533 2.6664h-35.996c0.7999 10.53 0 11.332 0 12.264h91.324c0.7999-0.9319 0-1.7345 0-12.264h-36.13l-2.5331-2.6664v-28.8zm63.167 0c4.6395 28.366 29.384 45.464 56.287 45.464 29.17 0 52.648-18.322 57.194-45.459l-16.132-5e-3c-4.3462 17.815-21.291 31.466-40.129 31.466-20.251 0-36.623-13.405-40.982-31.507zm174.01 0v44.662h13.998v-44.662zm39.462 0v44.662c3.4663-0.9319 7.8658-0.9319 11.466 0l40.276-44.662h-18.958c-5.2795 6.2233-10.812 12.504-17.052 18.263-0.8 0-1.7332-0.79591-2.5331-1.7345v-16.529zm52.328 0c4.9995 2.1971 9.2124 9.7016 11.799 13.067 7.8658 10.53 17.465 21.066 27.197 30.663 0.7999 1.7345 3.4663 0 5.1994 0 1.8665 0 5.3328 0.9319 7.0659-1.7345v-41.996h-13.199v16.529c0 0.93857 0.9333 1.7345-1.7331 1.7345-2.693 0-10.852-8.7177-18.811-18.206zm71.526 0v2.5357c13.065 33.33 29.864 42.929 57.061 42.929 28.33 0 51.728-18.322 56.261-45.459l-16.345-5e-3c-4.3328 16.676-19.358 31.466-39.916 31.466-20.251 0-36.623-13.405-40.982-31.507zm132.52 0v43.73h20.264c18.398 0 43.862 4.4009 43.862-27.201 0-1.7278 0.7999-6.1287-0.9333-9.5976-0.9332-2.3744-2.373-4.7435-4.4661-6.9726l-19.345 0.0413c5.7727 3.3543 9.8122 10.868 9.8122 14.801 0 14.93-11.465 15.732-22.798 15.732h-11.466c1.1732-20.602 1.1866-27.726 0.7866-30.465zm93.057 0v41.064c0.9332 3.5983 4.3995 2.6664 7.0659 2.6664 1.7332 0 4.3996 0 7.0659-1.7345v-41.996zm40.396 0v44.662c0.9332-0.9319 1.7331 0 14.932 0v-44.662zm79.858 0v44.662h14.932v-44.662zm52.128 0c6.9726 15.79 13.945 31.71 19.065 43.73h10.532c6.7593-14.536 13.225-29.092 19.585-43.651l-15.252-0.0787c-2.7064 6.0927-5.2261 12.201-7.7992 18.263h-1.8664c-2.3331-5.0768-5.5728-11.925-8.4391-18.175zm87.591 0v43.73h36.796c21.064-1.7345 28.13-14.93 28.13-28.929 0-3.4996-1.3598-9.479-4.3862-14.884l-20.091 0.0827c4.8395 2.3384 8.6124 6.682 8.6124 14.801 0 16.665-14.798 16.665-26.264 16.665-2.6664 0-7.0659 0.9319-8.7991-2.6664v-28.8zm90.39 0v41.996c1.7331 3.469 8.799 1.7345 13.198 2.6664 0.8-0.9319 1.7332-0.9319 1.7332-3.5983l-0.36-41.064zm33.25 0c4.5195 29.158 29.49 46.396 58.074 46.396 29.957 0 52.154-18.415 56.341-46.334l-17.038-0.0627c-4.1996 16.545-19.984 30.533-40.236 30.533-16.225 0-32.45-9.103-38.956-30.621l-18.185 0.088" />
        <path d="m2616.4-104.13c2.6531 4.7235 5.6128 9.4417 8.6125 13.868h12.265l-11.452-13.868h-9.4257" />
        <path d="m2490.8-333.04c0-20.664-18.531-23.331-30.797-23.331-1.7331 0-3.5996 0-6.1326 0.80192v43.193c1.7331 2.6664 6.1326 1.7342 9.5989 1.7342 12.399 0 27.33-3.6039 27.33-22.399zm401.96 26.929-0.9333-46.662c0.9333-1.8643 2.6664-3.5986 4.3996-3.5986h24.664v-8.1346h-36.929v61.061c0.9332 1.8695 1.7332 1.8695 3.4663 1.8695 2.6664 0 4.3995 0.79685 5.3328-4.5359zm-22.931 4.5359c0-0.93736 0.9332-1.8695 0.9332-7.2023h-27.33c-0.7999-0.93217 0-1.8643 0.9332-12.665-1.7331-6.2649-0.9332-7.1971 0-7.1971 0.2667-0.26571 0.4-0.40103 0.5333-0.40103s0.4 0.40103 2.1331 0.40103h18.398c2.6663-0.80205 5.3327-0.80205 5.3327-3.4684 0-1.8643-0.9332-2.7966-0.9332-4.5307h-25.464c-2.6663-1.8697-2.6663-8.1346-2.6663-10.801 0-4.5307-2.6664-8.9313 5.3327-8.9313h21.998c0.7999-0.93217 1.7331-0.93217 2.6663-1.8645v-6.2701h-38.796v62.931zm-50.128 0v-61.993l-8.7991-0.93737v62.931zm-20.131 0c0-0.93736 0.7999-2.8017 0.7999-6.4002l-23.731-0.80204c-0.9332-0.93217-3.4662-0.93217-3.4662-3.5986 0-1.8697 0.7999-9.0668 0.7999-13.467 3.5996-2.7965 3.5996-1.8643 5.3327-1.8643h18.398l1.8664-1.7342v-6.2649h-22.931l-2.6663-2.8018v-25.997h-8.7991v62.931zm-70.392-7.2023h-25.597c-2.5331-1.8643-2.5331-8.1294-2.5331-9.0668 0-1.7342 0-6.2649 0.7999-10.796 1.7332 0 2.6664 0 5.3328-0.80205 1.7332 0 21.998 4.4006 21.998-3.5986 0-1.8645-0.9333-2.6664-0.9333-3.5986h-23.731c-3.4663-2.6664-3.4663-8.1346-3.4663-10.801 0-1.7342 0-6.2649 1.7332-8.9313h25.464c1.7332-1.8645 2.6664-3.5986 2.6664-5.4682l-0.9332-2.6664-37.729 0.93737v61.993h36.929c0-1.8695 0.7999-4.5359 0-7.2023zm-159.18 5.3328v-41.329c0.7999-7.1971 13.998-13.462 18.398-13.462 6.1327 0 14.932 6.2651 16.665 11.728v44.933h8.7991v-47.599c-7.8659-15.332-16.665-16.264-26.397-16.264-2.5331 0-8.6658 0-12.265 1.8695-2.6664 0.9323-5.1994 1.729-7.0659 4.3954-3.4663 2.8018-6.9326 9.0668-6.9326 10.801v44.927c0.7999 1.8695 1.7332 1.8695 3.4663 1.8695 2.6664 0 3.4663 0 5.3328-1.8695zm-21.198 1.8695c0-1.8695 0.9333-4.5359 0-7.2023h-25.464c-0.9332-0.93217-3.5996-0.93217-3.5996-2.7966 0-5.3328 0-15.201 3.5996-17.066 0.2666-0.26571 0.4-0.40103 0.5333-0.40103s0.2666 0.40103 2.1331 0.40103h18.398c2.6664-0.80205 4.3995-1.7342 4.3995-3.4684 0-5.4682-5.1994-4.5307-7.0659-4.5307h-18.398c-3.5996-3.5987-3.5996-10.801-3.5996-16.134 0-3.5986 4.3995-3.5986 6.266-3.5986h23.731v-8.1346h-37.863v62.931zm-65.06-1.8695c13.199-6.2649 17.598-17.998 17.598-29.596 0-9.0668-4.3995-24.263-17.598-28.799-1.7331 0-4.3995-2.6664-7.0659-2.6664h-32.53v60.129c0.9332 0.93217 0.9332 1.8643 1.7331 2.8017 10.532 0 26.397 3.4632 37.863-1.8695zm173.31-6.2649c0-1.8645-0.9332-2.6664-0.9332-3.5986-5.1994 1.7341-11.465 4.5307-13.199 4.5307-6.1327 0-9.599-2.7966-9.599-7.1971 0-10.801 26.264-12.665 26.264-33.2 0-14.394-13.065-16.264-19.331-16.264-6.9326 0-7.8658-0.802-15.732 5.4682v9.8635s-0.9333 0.93217 1.7331 0.93217c0.7999 0 7.0659-8.1293 13.998-8.1293 5.3328 0 9.7323 4.5307 9.7323 8.9313 0 12.665-25.464 11.733-25.464 31.465 0 10.796 7.8658 17.061 16.665 17.061 6.1326 0 15.865-1.729 15.865-9.8635zm62.393 30.528s0.9332 0.93736 0.9332-1.8643c0-1.7342-7.0659-9.8688-11.465-14.264h-2.6664v2.6664c1.7331 4.5307 4.3995 11.598 9.7323 13.462h3.4663" />
      </g>
    </g>
  </g>
</svg>