<svg xmlns="http://www.w3.org/2000/svg" xml:space="preserve" viewBox="0 0 500 200.3">
  <g fill-rule="evenodd">
    <path fill="#af4238" d="M201.36 110.5h-40.1l20.9-51.2zm186.43-86.6-74.66 110.9h74.66v26.03H258.95l75.09-111.77h-69.11V23.9zm-184.73 0 53.33 136.93h-36.26l-9.82-26.87h-58.87l-11.52 26.87H104.1L163.81 23.9zm-167.23 0 37.54 78.49 32.42-78.5h36.26L82.33 160.83H68.25L-.01 23.9h35.84"/>
    <g fill="#284f73">
      <path d="m499.99 39.25-5.12 15.78h-38.4c-1.7 2.56-3.41 5.55-5.12 8.1 0 0 0 .44.43.44 5.12 1.28 10.67 2.13 15.79 4.26 14.07 5.55 20.05 17.5 20.05 27.73 0 17.92-15.79 35.84-37.12 39.25h-1.28c8.96-1.28 20.48-14.5 20.9-22.61v-8.1c-.85-12.38-17.49-26.03-29-25.6h-4.7l22.18-39.25zm-50.77-18.77c0 24.32-37.11 44.37-55.46 60.15h41.8l-7.67 16.21h-58.45v-2.56c18.78-17.06 58.88-43.51 58.88-66.55 0-10.66-10.24-14.5-17.07-14.5-5.97 0-15.78 3.4-21.33 8.95C395.9 5.12 410.4 0 421.92 0c9.8 0 27.3 5.55 27.3 20.48M374.56 117.32h-2.13c0-.86.85-2.14.85-2.99.43.43.86 1.7 1.28 2.99zm45.65-1.28c0 2.56-1.7 3.41-2.99 3.41-2.56 0-2.56-2.56-2.56-2.99 0-1.7.43-2.98 2.56-2.98 2.56 0 3 1.28 3 2.56zm23.04-1.7h-1.7c-.86-.86-1.29-1.29-2.57-1.29-.85 0-1.28.43-2.13.85 0 2.56 6.82 1.28 6.82 4.27 0 2.13-3.4 2.99-4.26 2.99-.43 0-3.41-.86-4.27-2.56h1.7c.44.85 1.29 1.28 2.57 1.28.85 0 1.7-.43 2.56-1.28-1.7-2.99-6.83-.43-6.83-4.27 0-2.13 2.14-2.56 3.84-2.56 1.28 0 3.84.43 4.27 2.56zm-20.9 2.12c0 3-2.14 4.7-5.13 4.7s-4.69-2.14-4.69-4.7c0-2.98 1.7-4.69 4.7-4.69 3.83 0 5.11 2.13 5.11 4.7zm-29.44-4.69c1.7 2.13 2.98 4.7 4.69 6.83.43-2.14.43-4.7 0-6.83h2.13v9.39h-2.13a65.13 65.13 0 0 0-4.7-6.83c-.42 2.13-.42 4.7-.42 6.83h-1.28v-9.39zm-18.35 0c1.28 2.99 2.56 6.4 3.84 9.39h-1.7c-.43-2.56-2.56-2.14-3.42-2.14-2.13 0-2.13-.42-2.98 2.14h-1.71a82.98 82.98 0 0 0 3.41-9.39h2.56M78.83 174.34c.07.4.11.82.11 1.3a9.2 9.2 0 0 1-.35 1.99c-.48 1.74-3.17 3.38-4.57 3.38h-3.63c-.12-.11-.35-.11-.23-3.74l-.1-2.93h-2.02v8.53h6.08c3.99 0 7.04-3.5 7.04-7.23 0-.41-.04-.85-.13-1.29zm6.97 0c.02.27.1.3.16.36h6.08c.13 1.53 0 1.63 0 1.76h-6.08l-.35.35c.58 4.09.23 4.2.35 4.32h6.44v1.74h-8.55v-8.53zm13.2 0c1.69 1.1 3.58 2.4 3.58 4.93 0 2.68-2.11 3.83-4.21 3.83-1.17 0-3.52-.23-3.88-1.74l.13-1.99c1.17 1.17 2.22 2 3.52 2 1.28 0 2.45-.95 2.45-2.1 0-2.27-3.37-3.04-5.1-4.92zm7.92 0v.02l.34.34h6.2v1.76h-6.2l-.34.35v3.97l.34.35h6.56c.12 1.51 0 1.64 0 1.74h-8.66v-8.53zm11.7 0v8.53h-2v-8.53zm4.83 0c1.41 1.67 2.85 3.36 4.3 5.03l.23-.23v-4.8h1.76v8.53h-1.53l-7.26-8.53zm12.45 0c.6 1.41 1.2 2.84 1.8 4.21.24 0 .34-.23.47-.46l1.69-3.74h1.94L137.8 183c-.1 0-.23-.13-.33-.23-1.15-2.79-2.38-5.6-3.64-8.44zm21.86 0c.13.43.2.86.2 1.3 0 .35-.24 1.17-.36 1.63-.59 2.46-3.4 3.97-5.26 3.97a5.57 5.57 0 0 1-5.34-6.9h-2.24a3.7 3.7 0 0 1-.03.13v2.34c0 1.39 2.22 5.14 3.98 5.37.1.1.23.23.36.23 1.97.59 1.97.7 3.4.7a7.44 7.44 0 0 0 7.5-8.76zm6.63 0v6.44l.35.35h6.67v1.74h-8.76v-8.53zm10.3 0c.26.68.53 1.34.83 2 .23.58.69 1.29.81 1.98.13 0 .23.13.36.23.1-.1.35-.35.35-.46a565.4 565.4 0 0 1 1.69-3.74h1.94L176.7 183c-.13 0-.23-.13-.36-.23-1.13-2.79-2.36-5.6-3.63-8.44zm11.83 0v8.53h-1.76v-8.53zm5.38 0v8.53h-1.86v-8.53zm5.12 0 .04.02.02-.02h2.5c-.84 1-1.75 2.12-2.41 2.93a34.48 34.48 0 0 1-2.72-2.93zm6.94 0v8.53h-1.75v-8.53zm5.35 0c.02.27.09.3.16.36h6.08v1.76h-6.08l-.36.35c.59 4.09.23 4.2.36 4.32h6.56v1.74h-8.68v-8.53zm11.4 0v8.53c-.12 0-.24.13-1.88 0v-8.53zm4.78 0c1.35 1.56 2.83 3.32 4.22 4.93h.36l.16-4.93h1.83v8.53h-1.64l-7.19-8.53zm15.7 0v8.53c-.47 0-1.06 0-1.63.13 0 0-.25.1-.25-.23v-8.43zm19.52 0c.1.38.14.77.14 1.17 0 2.94-2.57 5.73-5.49 5.73a5.6 5.6 0 0 1-5.46-6.9h-2.17c-.06.41-.1.85-.1 1.3 0 4.32 3.27 7.46 7.73 7.46a7.4 7.4 0 0 0 7.5-8.76zm12.09 0v8.53c-.12 0-.23.13-1.87 0v-8.53zm5.15 0v8.53h-1.76v-8.53zm5.14 0 .02.02.06-.02h2.34a45.17 45.17 0 0 0-2.3 2.93c-.9-.85-1.75-1.88-2.64-2.93zm6.92 0v8.53h-1.76v-8.53zm15.63 0c.11.43.17.86.17 1.3 0 3.04-2.81 5.6-5.62 5.6-3.16 0-5.5-2.8-5.5-5.6 0-.45.06-.88.16-1.3h-2.14v2.93c0 .24.46 1.28.7 1.87 1.29 2.58 4.44 3.96 6.78 3.96 3.75 0 7.73-2.68 7.73-7.46 0-.45-.03-.88-.1-1.3zm9.99 0a1.5 1.5 0 0 1-.8.25h-2.46c.04-.04.08-.08.1-.26l-2.1.01v8.53h5.98c.35 0 1.05-.23 1.53-.46.34-.23 1.5-.82 1.74-1.4.48-1.18.59-1.4.59-2 0-1.04-.11-1.97-1.28-2.9-.59-.47-1.3-.47-1.64-1.06.38-.21.68-.45.92-.7zm9.04 0v8.53h-1.89v-8.53zm5.5 0v6.8h6.67c.11 1.4 0 1.63 0 1.73h-8.67v-8.53zm10.64 0v8.53c-.34.13-.7.13-1.05.13-.23 0-.7 0-.94-.23v-8.43zm9.48 0c.26.59.53 1.18.83 1.76v.46h-3.98s-.13.13-.13-.1c0-.2.4-1.1.87-2.13l-2.11.01c-1.78 4.06-3.56 8.07-3.56 8.3 0 .23.13.23.13.23h1.76c2.34-5.13 1.28-4.32 4.9-4.32 3.98 0 2.58-.81 5.28 4.32h1.76c-1.25-2.84-2.47-5.69-3.71-8.54zm12.55 0c-.75.36-1.68.36-2.25.36-.57 0-1.05 0-1.28-.34v-.02h-1.86v8.53h1.74v-5.95c0-.46.35-.59.83-.59 2.81 0 3.86 3.98 6.08 6.54h2.22c-1.4-2.22-2.8-4.78-4.67-6.64v-.36a2.86 2.86 0 0 0 1.87-1.52zm8.6 0-.08 8.53h-1.86v-8.53zm15.47 0a5.45 5.45 0 0 1-5.36 6.79c-.23 0-1.05-.35-1.64-.35-1.17 0-3.62-2.69-3.62-3.97v-2.22l.07-.24h-2.43c-.06.41-.1.84-.1 1.29 0 4.44 3.5 7.59 7.84 7.59 4.1 0 7.61-2.92 7.61-7.6 0-.44-.03-.88-.1-1.3zm-68.93 4.45c0 .35 0 .58-.1.81-.13.36-1.4 1.4-1.66 1.4h-3.85c.12-.1.23-.22 0-4.08.23-.46 1.28-.36 1.76-.36 1.63 0 3.85-.23 3.85 2.23"/>
      <path d="m349.95 165.45-1.17 1.43h-.82c.2-.46.46-.95.73-1.43zm-281.9 8.9v-5.84h6.33c3.73-.1 6.09 3.03 6.65 5.84h-2.2c-.64-3.52-3.98-4.08-7.03-4.08h-1.88l.14 4.07zm15.8 0v-5.96h8.2c.12.12.23.12.23.48v1.28h-6.44c-.12.12 0 .23 0 2.91a8.07 8.07 0 0 0-.04 1.28zm11.65 0c-.6-.65-1-1.43-1-2.44 0-2.7 2.35-3.75 4.23-3.75.82 0 2.33.35 3.27 1.04v2c-.23 0-.58-.47-.94-.6a5.68 5.68 0 0 0-2.45-.68c-.82 0-2.22.35-2.22 1.74 0 1.1 1.24 1.82 2.6 2.7zm9.67 0v-5.96h8.2c.1.25.35.7.35.94 0 .35 0 .46-.13.82h-6.66c.1.23 0 .46 0 4.18zm11.46 0v-5.6c.36-.24.71-.24.94-.24.36 0 .7-.12.95.13 1.63 1.82 3.27 3.74 4.93 5.7h-2.49l-1.98-2.33c-.13 0-.23.13-.36.23v2.1zm11.36 0v-5.84h1.76v5.83zm5.85 0c-.8-1.83-1.63-3.66-2.45-5.48l.12-.48c.7.25 1.51-.47 1.99.58a96.7 96.7 0 0 1 2.4 5.36zm6.02 0c.9-1.96 1.8-3.92 2.65-5.84h1.76s.1.13.1.23l-2.57 5.6zm4.9 0c1.2-4.69 4.22-6.07 7.7-6.07 3.8 0 6.94 2.56 7.52 6.07h-2.21a5.92 5.92 0 0 0-5.43-4.2 5.5 5.5 0 0 0-5.34 4.2zm17.9 0v-5.96a3.1 3.1 0 0 0 1.5 0c.23.58.23.48.23.7v5.25zm10.05 0c-.8-1.83-1.63-3.66-2.45-5.48l.1-.48c.6.12 1.53-.34 1.89.25 1.05 1.73 1.7 3.74 2.45 5.7zm6.02 0 2.64-5.84h1.76c.12.13.12.23.12.23l-2.57 5.6zm6.03 0v-5.84h1.76v5.83zm5.28 0v-5.6c.23-.36.7-.24.93-.24.35 0 .58-.12.82 0 .7.59 1.3 1.51 1.88 2.22 1.16 1.17 1.97 2.66 3.36 3.6l-2.57.01c-.66-.78-1.27-1.54-1.84-2.2-.12-.13-.35-.13-.71-.23v2.43zm7.04 0 5.37-5.96c.46.12.93.12 1.51 0v5.95h-1.74v-2.33c-.12 0-.12-.1-.36-.1-.2 0-1.18 1.12-2.28 2.43zm10.28 0v-5.84h8.2c.24.46.24.94.35 1.4-.11.11-.11.24-.47.24h-6.1c-.1.12 0 .23 0 2.91a9.42 9.42 0 0 0-.03 1.28zm11.48 0v-5.6c.1-.11.1-.24.23-.36.46.12 1.17-.23 1.53.12 1.51 1.4 2.91 3.4 4.21 5.03l.69.8h-2.26l-2.05-2.43c-.13 0-.36.1-.48.23v2.2zm11.4 0 .19-5.84h1.63v5.83zm9.08 0v-3.85l-.34-.35h-4.8c.1-1.4 0-1.51 0-1.64h12.18c.1.13 0 .23 0 1.64h-4.82l-.34.35v3.84zm8.42 0c.62-3.8 3.92-6.07 7.5-6.07 3.9 0 7.02 2.44 7.63 6.06h-2.15a5.6 5.6 0 0 0-5.35-4.2 5.54 5.54 0 0 0-5.47 4.2zm23.2 0v-5.96h1.87v5.95zm5.26 0v-5.96c.46.12 1.05.12 1.53 0l5.37 5.95h-2.53c-.7-.83-1.44-1.67-2.27-2.43-.1 0-.23.1-.34.23v2.2zm6.98 0c.66-.3 1.23-1.3 1.57-1.75a37.1 37.1 0 0 1 3.63-4.09c.1-.23.46 0 .7 0 .24 0 .7-.12.93.23v5.6h-1.76v-2.2c0-.13.13-.23-.23-.23s-1.44 1.16-2.5 2.42zm9.53 0V174c1.75-4.44 3.99-5.72 7.61-5.72 3.78 0 6.9 2.44 7.5 6.06h-2.18a5.54 5.54 0 0 0-5.32-4.2 5.54 5.54 0 0 0-5.46 4.2zm17.67 0v-5.84h2.7c2.46 0 5.85-.59 5.85 3.63 0 .23.11.81-.12 1.28a2.9 2.9 0 0 1-.6.93h-2.58c.77-.46 1.31-1.46 1.31-1.98 0-2-1.53-2.1-3.04-2.1h-1.53c.16 2.75.16 3.7.1 4.06zm12.41 0v-5.48c.13-.48.59-.36.94-.36.23 0 .59 0 .95.23v5.6zm5.39 0v-5.96c.12.12.23 0 1.99 0v5.95zm10.64 0v-5.96h2v5.95zm6.95 0 2.55-5.84h1.4c.9 1.94 1.76 3.88 2.61 5.82l-2.03.01c-.36-.81-.7-1.63-1.04-2.43H349l-1.13 2.42zm11.68 0v-5.84h4.9c2.82.23 3.76 2 3.76 3.86 0 .46-.18 1.26-.59 1.98h-2.67c.64-.32 1.14-.9 1.14-1.98 0-2.22-1.97-2.22-3.5-2.22-.35 0-.94-.13-1.17.35v3.84zm12.05 0v-5.6c.24-.47 1.18-.24 1.76-.36.11.12.24.12.24.48l-.05 5.47zm4.44 0c.6-3.9 3.93-6.2 7.74-6.2 4 0 6.95 2.46 7.51 6.18l-2.27.01a5.52 5.52 0 0 0-5.36-4.07c-2.17 0-4.33 1.21-5.2 4.08h-2.42M348.68 165.45c.36-.63.75-1.26 1.15-1.85h1.64l-1.53 1.85h-1.26M331.94 195.97c0 2.76-2.47 3.11-4.1 3.11-.24 0-.49 0-.83-.1v-5.76c.24-.36.82-.23 1.28-.23 1.66 0 3.65.48 3.65 2.98zm53.6-3.59-.13 6.23c.12.24.35.48.58.48h3.3v1.08h-4.93v-8.14c.12-.25.23-.25.46-.25.36 0 .59-.1.71.6zm-3.07-.6c0 .12.13.25.13.96h-3.65c-.1.12 0 .25.13 1.69-.23.83-.13.96 0 .96.03.03.05.05.07.05s.05-.05.28-.05h2.46c.35.1.7.1.7.46 0 .25-.12.37-.12.6h-3.4c-.35.25-.35 1.09-.35 1.44 0 .6-.35 1.2.71 1.2h2.94c.1.12.23.12.35.24v.84h-5.17v-8.4zm-6.68 0v8.26l-1.17.13v-8.4zm-2.68 0c0 .12.1.37.1.85l-3.16.1c-.13.13-.46.13-.46.49 0 .25.1 1.2.1 1.8.48.37.48.24.71.24h2.46l.25.23v.84h-3.06l-.36.37v3.47h-1.17v-8.4zm-9.39.96h-3.41c-.34.25-.34 1.08-.34 1.2 0 .24 0 .84.1 1.45.24 0 .36 0 .72.1.23 0 2.93-.58 2.93.48 0 .25-.12.36-.12.48h-3.17c-.46.36-.46 1.09-.46 1.44 0 .24 0 .84.23 1.2h3.4c.23.24.35.47.35.72l-.12.36-5.03-.13v-8.26h4.92c0 .25.1.6 0 .96zm-21.22-.71v5.5c.1.97 1.86 1.8 2.45 1.8.82 0 2-.83 2.22-1.56v-6h1.18v6.36c-1.05 2.04-2.23 2.16-3.52 2.16-.34 0-1.16 0-1.64-.25-.35-.12-.7-.23-.94-.58a3.1 3.1 0 0 1-.93-1.44v-6c.11-.24.24-.24.47-.24.35 0 .46 0 .7.25zm-2.83-.25c0 .25.13.6 0 .96h-3.4c-.12.12-.47.12-.47.37 0 .71 0 2.03.48 2.28.03.03.05.05.07.05s.03-.05.28-.05h2.46c.35.1.58.23.58.46 0 .73-.7.6-.94.6h-2.45c-.48.48-.48 1.44-.48 2.16 0 .48.58.48.83.48h3.17v1.08h-5.05v-8.4zm-8.67.25c1.76.83 2.34 2.4 2.34 3.94 0 1.21-.58 3.24-2.34 3.84-.23 0-.59.36-.94.36h-4.34v-8.02c.12-.12.12-.25.23-.37 1.4 0 3.52-.46 5.05.25zm23.1.83c0 .25-.12.36-.12.48-.7-.23-1.53-.6-1.76-.6-.82 0-1.28.37-1.28.96 0 1.44 3.5 1.69 3.5 4.43 0 1.91-1.74 2.16-2.58 2.16-.92 0-1.04.11-2.1-.73v-1.31s-.12-.12.24-.12c.1 0 .94 1.08 1.86 1.08.72 0 1.3-.6 1.3-1.2 0-1.68-3.4-1.56-3.4-4.19a2.17 2.17 0 0 1 2.23-2.27c.82 0 2.11.23 2.11 1.31zm8.32-4.07s.13-.12.13.25c0 .23-.94 1.32-1.53 1.9h-.36v-.35c.23-.6.59-1.55 1.3-1.8h.46"/>
    </g>
  </g>
</svg>