<svg xmlns="http://www.w3.org/2000/svg" fill-rule="evenodd" viewBox="0 0 150 31.3">
    <path d="M0 817.89a24 24 0 0 1 24-24h182a24 24 0 1 1 0 48H24a24 24 0 0 1-24-24z" style="fill:#14c439;stroke:none" transform="matrix(.65217 0 0 .65217 0 -517.75)"/>
    <path d="M2.3 818.75a23.52 23.52 0 0 1 23.52-23.52h178.36a23.52 23.52 0 0 1 23.52 23.52c0 12.99-225.4 12.99-225.4 0z" style="fill:#1bd541;stroke:none" transform="matrix(.65217 0 0 .65217 0 -517.75)"/>
    <path d="M22.01 808.09c.15.16.3.54.37.76.45.99 1.34 3.12 1.34 3.35 0 .84-1.41 1.9-1.41 2.28 0 .23.45.92.67 1.3.52.6 1.11 1.44 1.85 2.05.22.23 3.12 2.28 3.71 2.28.44 0 1.85-2.28 2.22-2.28.23 0 2.67 1.14 3.93 1.83.08.07.15.38.15.6 0 2.44-2.22 3.58-4 3.58-2.97 0-8.38-3.35-10.53-6.85-.37-.68-.89-1.21-1.19-1.82-.07-.08-.89-2.13-.89-2.51v-1.45c.45-2.05 1.11-3.19 2.82-3.19.22 0 .67-.08.96.07zm18.25 7.61c0 7.99-6.31 14.07-13.72 14.07-2.52 0-5.05-.68-7.57-2.2l-5.11 1.36 1.41-5.17c-1.34-1.75-2.45-5.4-2.45-7.38v-1.36c.67-8.6 7.34-13.32 13.72-13.32 7.56 0 13.72 6.24 13.72 14zm2.74 0c0 9.51-7.56 16.89-16.46 16.89-2.67 0-5.12-.54-7.94-2.06l-8.6 2.36 2.3-8.67a17.35 17.35 0 0 1-2.23-8.44c0-9.36 7.35-16.89 16.47-16.89 9.04 0 16.46 7.53 16.46 16.81zM50.06 822.39v-10.38h7.69v1.75h-5.6v2.31h5.21v1.75h-5.21v2.82h5.8v1.75zm10.02 0v-10.38h2.04l4.24 6.94v-6.94h1.95v10.38h-2.1l-4.19-6.81v6.81zm12.62 0-3.71-10.38h2.28l2.62 7.68 2.54-7.68h2.23l-3.72 10.38zm7.29 0v-10.38h2.1v10.38zm4.07 0v-10.38h7.69v1.75h-5.6v2.31h5.21v1.75h-5.21v2.82h5.8v1.75zm13.98-10.38h2.1v5.62c0 .9.02 1.48.07 1.74.09.43.31.77.65 1.02.33.26.79.39 1.38.39.59 0 1.04-.12 1.34-.36.31-.25.49-.55.55-.9.06-.36.09-.94.09-1.77v-5.74h2.1v5.46c0 1.24-.06 2.13-.17 2.64-.12.52-.32.95-.63 1.31-.3.35-.71.63-1.22.84-.51.21-1.18.32-2 .32-.99 0-1.74-.12-2.25-.35a3.14 3.14 0 0 1-1.22-.89 2.91 2.91 0 0 1-.58-1.15c-.14-.6-.21-1.48-.21-2.64zm9.99 10.38v-10.38h3.13l1.89 7.08 1.86-7.08h3.14v10.38h-1.94v-8.17l-2.07 8.17h-2.01l-2.06-8.17v8.17zm21.38 0h-2.28l-.9-2.36h-4.15l-.86 2.36H119l4.04-10.38h2.22zm-3.85-4.12-1.43-3.84-1.41 3.84zm8.47 4.12v-10.38h3.13l1.89 7.08 1.86-7.08h3.14v10.38h-1.94v-8.17l-2.07 8.17h-2.01l-2.06-8.17v8.17zm12.03 0v-10.38h7.69v1.75h-5.6v2.31h5.21v1.75h-5.21v2.82h5.8v1.75zm10.02 0v-10.38h2.04l4.24 6.94v-6.94h1.95v10.38h-2.1l-4.19-6.81v6.81zm9.44-3.36 2.04-.21c.13.69.37 1.19.75 1.51.38.32.88.48 1.52.48.67 0 1.18-.14 1.52-.43.35-.28.52-.62.52-1a.93.93 0 0 0-.22-.63 1.72 1.72 0 0 0-.75-.45c-.25-.08-.81-.23-1.68-.45a5.63 5.63 0 0 1-2.36-1.03 2.7 2.7 0 0 1-.51-3.58c.3-.47.73-.82 1.29-1.06a5.26 5.26 0 0 1 2.05-.36c1.3 0 2.28.29 2.94.86.66.58 1 1.35 1.04 2.32l-2.1.07c-.09-.54-.28-.92-.58-1.16-.29-.23-.73-.35-1.32-.35-.61 0-1.09.13-1.43.38a.73.73 0 0 0-.34.64c0 .25.11.46.31.64.27.22.91.45 1.93.69 1.02.24 1.77.49 2.26.75.49.26.87.61 1.15 1.06.28.44.41.99.41 1.65a3.06 3.06 0 0 1-1.89 2.83c-.61.25-1.36.38-2.26.38-1.31 0-2.32-.3-3.03-.91a3.97 3.97 0 0 1-1.26-2.64zm19.89 3.36h-2.28l-.9-2.36h-4.15l-.86 2.36H175l4.04-10.38h2.22zm-3.85-4.12-1.43-3.84-1.41 3.84zm9.32.31v-1.76h4.52v4.15c-.44.42-1.07.8-1.91 1.12-.83.33-1.67.49-2.53.49a5.66 5.66 0 0 1-2.84-.69 4.38 4.38 0 0 1-1.82-1.96 6.39 6.39 0 0 1-.61-2.77c0-1.08.23-2.04.68-2.89a4.64 4.64 0 0 1 1.99-1.93c.67-.35 1.5-.52 2.49-.52 1.29 0 2.29.27 3.02.81a3.7 3.7 0 0 1 1.4 2.25l-2.09.39a2.2 2.2 0 0 0-.82-1.21c-.4-.29-.91-.44-1.51-.44-.92 0-1.65.29-2.19.87-.54.58-.81 1.44-.81 2.59 0 1.23.28 2.16.82 2.77.55.62 1.27.93 2.16.93a4.2 4.2 0 0 0 2.45-.89v-1.31zm7.18 3.81v-10.38h7.69v1.75h-5.6v2.31h5.21v1.75h-5.21v2.82h5.8v1.75zm8.97 0v-10.38h3.13l1.89 7.08 1.86-7.08h3.14v10.38h-1.94v-8.17l-2.07 8.17h-2.01l-2.06-8.17v8.17z" style="fill:#fff;stroke:none" transform="matrix(.65217 0 0 .65217 0 -517.75)"/>
</svg>