<svg xmlns="http://www.w3.org/2000/svg" viewBox="0 0 227.3 133.33">
  <g fill-rule="evenodd">
    <path fill="#badffb" d="M227.3 0v133.34H0V0z"/>
    <path fill="#fff" d="m142.86 84.45-.64.63L127.3 70.8c-1.9 1.58-3.49 3.49-5.4 5.08-.31 0-.63 0-.95-.32 1.91-2.86 4.45-6.03 6.35-6.03 2.22 0 14.29 13.01 15.56 14.92zM112.7 68.57c2.54 2.23 5.4 5.4 7.94 8.26 2.54 2.54 6.34 5.08 7.61 8.25h-.95l-20.95-20.32L85.4 85.08s-.95 0-.95-.63c0-.95 3.8-4.76 6.03-6.67 1.27-1.27 13.33-14.29 15.87-14.29 1.9 0 4.44 3.18 6.35 5.08zm25.08-10.79c0 1.9-2.22 4.13-4.13 4.13-3.17 0-4.13-2.86-4.13-4.45 0-2.85 1.9-3.8 4.13-3.8a4.2 4.2 0 0 1 4.13 4.12zm1.9 0c0 2.54-2.85 4.76-4.76 5.4 0 0-2.54.31-2.86 0-3.17-1.27-4.12-3.18-4.12-5.4 0-3.49 2.22-5.71 5.71-5.71a5.77 5.77 0 0 1 6.03 5.71zm4.45-10.8v39.06H83.18V46.99zm.95-1.9.95.95v40.64c-.31.32-.63.95-1.27 1.27H82.22l-.95-.95V46.03l.95-.95z"/>
  </g>
</svg>