<svg xmlns="http://www.w3.org/2000/svg" viewBox="0 0 35 35">
  <path fill="#dc9918" d="M31.25 0H3.75A3.75 3.75 0 0 0 0 3.75v27.5A3.75 3.75 0 0 0 3.75 35h27.5A3.75 3.75 0 0 0 35 31.25V3.75A3.75 3.75 0 0 0 31.25 0Zm-1.28 24.01L28.8 29.1a1.17 1.17 0 0 1-1.14.91A22.66 22.66 0 0 1 5 7.34a1.23 1.23 0 0 1 .9-1.14L11 5.03a1.42 1.42 0 0 1 .26-.03 1.27 1.27 0 0 1 1.08.71l2.34 5.47a1.4 1.4 0 0 1 .1.46 1.33 1.33 0 0 1-.43.9l-2.96 2.43a18.12 18.12 0 0 0 8.65 8.66l2.42-2.96a1.33 1.33 0 0 1 .91-.43 1.4 1.4 0 0 1 .46.1l5.47 2.33a1.27 1.27 0 0 1 .71 1.08 1.36 1.36 0 0 1-.03.26Z" />
</svg>