<svg xmlns="http://www.w3.org/2000/svg" viewBox="0 0 35 35">
  <path fill="#dc9918" d="M29.76 5.09a17.35 17.35 0 0 0-27.3 20.93L0 35l9.2-2.41a17.3 17.3 0 0 0 8.29 2.1A17.51 17.51 0 0 0 35 17.36 17.41 17.41 0 0 0 29.76 5.1ZM17.49 31.78a14.39 14.39 0 0 1-7.34-2.01l-.53-.32-5.45 1.43 1.45-5.32-.34-.54a14.44 14.44 0 1 1 26.79-7.67 14.58 14.58 0 0 1-14.58 14.42Zm7.91-10.8c-.43-.22-2.56-1.27-2.96-1.41s-.69-.22-.98.22-1.12 1.4-1.37 1.7-.51.33-.94.1c-2.55-1.27-4.22-2.27-5.9-5.15-.45-.76.44-.71 1.27-2.37a.8.8 0 0 0-.04-.75l-1.33-3.22c-.35-.85-.71-.73-.98-.74-.25-.02-.54-.02-.83-.02a1.6 1.6 0 0 0-1.15.54 4.87 4.87 0 0 0-1.52 3.62 8.49 8.49 0 0 0 1.77 4.48c.22.29 3.05 4.66 7.4 6.55 2.75 1.18 3.83 1.29 5.2 1.08a4.44 4.44 0 0 0 2.92-2.06 3.62 3.62 0 0 0 .25-2.06c-.1-.2-.38-.3-.81-.51Z"/>
</svg>